{
	"asset":{
		"generator":"Khronos glTF Blender I/O v3.5.30",
		"version":"2.0"
	},
	"extensionsUsed":[
		"KHR_materials_unlit"
	],
	"scene":0,
	"scenes":[
		{
			"name":"Scene",
			"nodes":[
				0,
				1
			]
		}
	],
	"nodes":[
		{
			"mesh":0,
			"name":"Cube",
			"rotation":[
				0.16827286779880524,
				0.23092500865459442,
				-0.11950202286243439,
				0.9508297443389893
			],
			"translation":[
				0.5,
				-0.4599999785423279,
				-0.35999998450279236
			]
		},
		{
			"mesh":1,
			"name":"Plane",
			"rotation":[
				0,
				0,
				-0.7071068286895752,
				0.7071068286895752
			],
			"translation":[
				-1.2086551189422607,
				-1.4398902654647827,
				-0.4898322522640228
			]
		}
	],
	"materials":[
		{
			"doubleSided":true,
			"extensions":{
				"KHR_materials_unlit":{}
			},
			"name":"Sides",
			"pbrMetallicRoughness":{
				"baseColorFactor":[
					0.026240652427077293,
					0,
					0.9215815663337708,
					1
				],
				"metallicFactor":0,
				"roughnessFactor":0.9
			}
		}
	],
	"meshes":[
		{
			"name":"Cube",
			"primitives":[
				{
					"attributes":{
						"POSITION":0,
						"TEXCOORD_0":1,
						"NORMAL":2
					},
					"indices":3,
					"material":0
				}
			]
		},
		{
			"name":"Plane",
			"primitives":[
				{
					"attributes":{
						"POSITION":4,
						"TEXCOORD_0":5,
						"NORMAL":6
					},
					"indices":7
				}
			]
		}
	],
	"accessors":[
		{
			"bufferView":0,
			"componentType":5126,
			"count":150,
			"max":[
				1,
				1,
				1
			],
			"min":[
				-1,
				-1,
				-1
			],
			"type":"VEC3"
		},
		{
			"bufferView":1,
			"componentType":5126,
			"count":150,
			"type":"VEC2"
		},
		{
			"bufferView":2,
			"componentType":5126,
			"count":150,
			"type":"VEC3"
		},
		{
			"bufferView":3,
			"componentType":5123,
			"count":576,
			"type":"SCALAR"
		},
		{
			"bufferView":4,
			"componentType":5126,
			"count":4,
			"max":[
				5,
				0,
				5
			],
			"min":[
				-5,
				0,
				-5
			],
			"type":"VEC3"
		},
		{
			"bufferView":5,
			"componentType":5126,
			"count":4,
			"type":"VEC2"
		},
		{
			"bufferView":6,
			"componentType":5126,
			"count":4,
			"type":"VEC3"
		},
		{
			"bufferView":7,
			"componentType":5123,
			"count":6,
			"type":"SCALAR"
		}
	],
	"bufferViews":[
		{
			"buffer":0,
			"byteLength":1800,
			"byteOffset":0,
			"target":34962
		},
		{
			"buffer":0,
			"byteLength":1200,
			"byteOffset":1800,
			"target":34962
		},
		{
			"buffer":0,
			"byteLength":1800,
			"byteOffset":3000,
			"target":34962
		},
		{
			"buffer":0,
			"byteLength":1152,
			"byteOffset":4800,
			"target":34963
		},
		{
			"buffer":0,
			"byteLength":48,
			"byteOffset":5952,
			"target":34962
		},
		{
			"buffer":0,
			"byteLength":32,
			"byteOffset":6000,
			"target":34962
		},
		{
			"buffer":0,
			"byteLength":48,
			"byteOffset":6032,
			"target":34962
		},
		{
			"buffer":0,
			"byteLength":12,
			"byteOffset":6080,
			"target":34963
		}
	],
	"buffers":[
		{
			"byteLength":6092,
			"uri":"data:application/octet-stream;base64,"
		}
	]
}
