<svg xmlns="http://www.w3.org/2000/svg" xml:space="preserve" id="Capa_1" x="0" y="0" style="enable-background:new 0 0 1395.3 107.4" version="1.1" viewBox="0 0 1395.3 107.4"><style>.st0{fill:#fff;stroke:#2d00f6;stroke-width:.6;stroke-miterlimit:10}</style><path d="m897.1 0 494.7 105.9H8.6L503.3 0h393.8z" class="st0"/><path d="M539.1 0C404.2 35.3 269.3 70.6 134.3 105.9M574.9 0C470 35.3 365 70.6 260.1 105.9M610.7 0c-75 35.3-149.9 70.6-224.9 105.9M646.5 0c-45 35.3-90 70.6-134.9 105.9M682.3 0l-45 105.9M718.1 0l45 105.9M753.9 0c45 35.3 90 70.6 134.9 105.9M789.7 0c75 35.3 149.9 70.6 224.9 105.9M825.5 0c104.9 35.3 209.9 70.6 314.8 105.9M861.3 0c134.9 35.3 269.9 70.6 404.8 105.9M1309.4 88.2H91.1M1226.9 70.6H173.5M1144.5 53H256M1062 35.3H338.4M979.5 17.7H420.8" class="st0"/></svg>